<?xml version="1.0" encoding="utf-8"?>
<!-- Generator: Adobe Illustrator 24.1.0, SVG Export Plug-In . SVG Version: 6.00 Build 0)  -->
<svg version="1.1" id="Layer_1" xmlns="http://www.w3.org/2000/svg" xmlns:xlink="http://www.w3.org/1999/xlink" x="0px" y="0px"
	 viewBox="0 0 43.1 49.9" style="enable-background:new 0 0 43.1 49.9;" xml:space="preserve">
<style type="text/css">
	.st0{fill-rule:evenodd;clip-rule:evenodd;fill:#BF1E2D;}
</style>
<g>
	<circle class="st0" cx="21.5" cy="5" r="5"/>
	<path class="st0" d="M34.7,27l-4.3-13.7c-0.1-0.6-0.5-1-1-1.2c-1.4-0.9-3.1-1.4-5.1-1.9c-1-0.1-1.8-0.2-2.8-0.2s-1.8,0.1-2.8,0.2
		c-1.9,0.3-3.6,1-5.1,1.9c-0.5,0.3-0.8,0.7-1,1.2L8.3,27C8,28.3,8.7,29.5,10,29.8c0.2,0.1,0.5,0.1,0.7,0.1c1.1,0,2-0.7,2.3-1.6
		l3.7-11.6v3.9l-4.5,13.7h3.3v15.5h4.8V34.4h2.4v15.5h4.8V34.4h3.3l-4.5-13.7v-3.9l3.7,11.6c0.4,1,1.3,1.6,2.3,1.6
		c0.2,0,0.5,0,0.7-0.1C34.4,29.5,35.1,28.3,34.7,27z"/>
</g>
</svg>
