<?xml version="1.0" encoding="utf-8"?>
<!-- Generator: Adobe Illustrator 24.0.3, SVG Export Plug-In . SVG Version: 6.00 Build 0)  -->
<svg version="1.1" id="Layer_1" xmlns="http://www.w3.org/2000/svg" xmlns:xlink="http://www.w3.org/1999/xlink" x="0px" y="0px"
	 viewBox="0 0 832.8 171.3" style="enable-background:new 0 0 832.8 171.3;" xml:space="preserve">
<style type="text/css">
	.st0{fill:#BF1E2D;}
	.st1{fill:#999999;}
	.st2{fill:none;stroke:#BF1E2D;stroke-width:7;stroke-miterlimit:10;}
</style>
<path class="st0" d="M286.4,79.2c0,5.9-0.9,11.7-3.2,17c-2.1,5-5,9.7-8.8,13.5s-8.5,6.8-13.8,8.8c-5.6,2.3-11.7,3.2-17.9,3.2h-32.6
	V36.6H243c6.2,0,12,0.9,17.9,3.2c5.3,2.1,9.7,5,13.8,8.8c3.8,3.8,6.8,8.5,8.8,13.5C285.5,67.4,286.4,73.3,286.4,79.2z M268.2,79.2
	c0-4.1-0.6-8.2-1.8-12c-1.2-3.2-2.6-6.5-5-9.1c-2.3-2.3-5-4.4-7.9-5.6c-3.5-1.5-7-2.1-10.9-2.1h-15v57.5h15c3.5,0,7.3-0.6,10.9-2.1
	c2.9-1.2,5.9-3.2,7.9-5.6c2.3-2.6,4.1-5.9,5-9.1C267.9,87.4,268.5,83.3,268.2,79.2z"/>
<path class="st0" d="M309.3,94.1c0,4.7,1.8,9.1,5,12.3c2.9,2.6,6.8,4.1,10.6,3.8c2.1,0,4.1-0.3,5.9-0.9c1.5-0.6,2.9-1.2,4.4-1.8
	l3.2-1.8c0.9-0.6,1.8-0.9,2.9-0.9s2.3,0.6,2.9,1.5l4.7,5.9c-1.8,2.1-3.5,3.5-5.6,5c-2.1,1.2-4.1,2.3-6.5,3.2
	c-2.1,0.9-4.4,1.2-6.8,1.5c-2.1,0.3-4.4,0.3-6.5,0.6c-4.1,0-7.9-0.6-11.7-2.1c-3.5-1.5-6.8-3.5-9.7-6.2c-2.9-2.9-5-6.5-6.5-10.3
	c-1.8-4.4-2.3-9.4-2.3-14.1c0-4.1,0.6-7.9,2.1-11.7c1.2-3.5,3.2-6.8,5.9-9.4c2.6-2.6,5.9-5,9.4-6.5c3.8-1.8,8.2-2.3,12.3-2.3
	c3.5,0,7.3,0.6,10.9,1.8c6.5,2.3,11.7,7.6,14.1,14.1c1.5,3.8,2.1,7.6,2.1,11.7c0,0.9,0,2.1-0.3,2.9c0,0.6-0.3,1.2-0.6,1.8
	c-0.3,0.6-0.6,0.9-1.2,0.9c-0.6,0.3-1.2,0.3-1.8,0.3L309.3,94.1z M334.8,84.4c0-1.8-0.3-3.2-0.6-4.7c-0.3-1.5-1.2-2.9-2.1-4.1
	s-2.3-2.1-3.8-2.9c-5-2.1-10.3-1.2-14.4,2.3c-2.3,2.6-3.8,5.9-4.1,9.4C309.8,84.4,334.8,84.4,334.8,84.4z"/>
<path class="st0" d="M372.4,94.1c0,4.7,1.8,9.1,5,12.3c2.9,2.6,6.8,4.1,10.6,3.8c2.1,0,4.1-0.3,5.9-0.9c1.5-0.3,2.6-0.9,4.1-1.5
	l3.2-1.8c0.9-0.6,1.8-0.9,2.9-0.9c1.2,0,2.3,0.6,2.9,1.5l4.7,5.9c-1.8,2.1-3.5,3.5-5.6,5c-2.1,1.2-4.1,2.3-6.5,3.2
	c-2.1,0.9-4.4,1.2-6.8,1.5c-2.1,0.3-4.4,0.3-6.5,0.6c-4.1,0-7.9-0.6-11.7-2.1c-3.5-1.5-6.8-3.5-9.7-6.2c-2.9-2.9-5-6.5-6.5-10.3
	c-1.8-4.4-2.3-9.4-2.3-14.1c0-4.1,0.6-7.9,2.1-11.7c1.2-3.5,3.2-6.8,5.9-9.4c2.6-2.6,5.9-5,9.4-6.5c3.8-1.8,8.2-2.3,12.3-2.3
	c3.5,0,7.3,0.6,10.6,1.8c6.5,2.3,11.7,7.6,14.1,14.1c1.5,3.8,2.1,7.6,2.1,11.7c0,0.9,0,2.1-0.3,2.9c0,0.6-0.3,1.2-0.6,1.8
	c-0.3,0.6-0.6,0.9-1.2,0.9c-0.6,0.3-1.2,0.3-1.8,0.3L372.4,94.1z M397.6,84.4c0-1.8-0.3-3.2-0.6-4.7c-0.3-1.5-1.2-2.9-2.1-4.1
	s-2.3-2.1-3.8-2.9c-5-2.1-10.3-1.2-14.4,2.3c-2.3,2.6-3.8,5.9-4.4,9.4C372.3,84.4,397.6,84.4,397.6,84.4z"/>
<path class="st0" d="M437.6,69.2c1.2-1.2,2.3-2.6,3.8-3.5c1.5-1.2,2.9-2.1,4.4-2.9c1.5-0.9,3.2-1.5,5-1.8c2.1-0.6,3.8-0.6,5.9-0.6
	c3.2,0,6.2,0.6,9.1,2.1c2.6,1.5,5.3,3.5,7,6.2c2.1,2.9,3.5,6.2,4.7,9.7c1.2,4.4,1.8,8.8,1.8,13.2s-0.6,8.5-1.8,12.6
	c-1.2,3.5-2.9,7-5.3,10c-2.3,2.6-5,5-8.2,6.5s-7,2.3-10.6,2.3c-2.9,0-5.6-0.3-8.5-1.5c-2.3-0.9-4.4-2.3-6.2-4.1v24.1h-16.4V61.3h10
	c1.8,0,3.5,1.2,4.1,2.9L437.6,69.2z M438.4,105.9c1.5,1.8,2.9,2.9,5,3.8c1.8,0.6,3.8,1.2,5.9,1.2c1.8,0,3.5-0.3,5.3-1.2
	c1.8-0.9,3.2-2.1,4.1-3.5c1.2-1.8,2.1-3.8,2.6-6.2c0.6-2.9,0.9-5.9,0.9-8.8s-0.3-5.9-0.9-8.5c-0.3-2.1-1.2-3.8-2.3-5.6
	c-0.9-1.5-2.1-2.3-3.5-3.2c-1.5-0.6-3.2-0.9-4.7-0.9c-2.6,0-5,0.6-7,1.8c-2.1,1.2-4.1,2.9-5.6,5v26.1
	C438.2,105.9,438.4,105.9,438.4,105.9z"/>
<path class="st1" d="M566.7,36.6v85.1h-17.9V85h-37.6v36.7h-17.6V36.6h17.6v36.1h37.6V36.6H566.7z"/>
<path class="st1" d="M593.4,94.1c0,4.7,1.8,9.1,4.7,12.3c2.9,2.6,6.8,4.1,10.6,3.8c2.1,0,4.1-0.3,5.9-0.9c1.5-0.6,2.9-1.2,4.4-1.8
	l3.2-1.8c0.9-0.6,1.8-0.9,2.9-0.9s2.3,0.6,2.9,1.5l4.7,5.9c-1.8,2.1-3.5,3.5-5.6,5c-2.1,1.2-4.1,2.3-6.5,3.2
	c-2.1,0.9-4.4,1.2-6.8,1.5c-2.1,0.3-4.4,0.3-6.5,0.6c-4.1,0-7.9-0.6-11.7-2.1c-3.5-1.5-6.8-3.5-9.7-6.2c-2.9-2.9-5-6.5-6.5-10.3
	c-1.8-4.4-2.3-9.4-2.3-14.1c0-4.1,0.6-7.9,2.1-11.7c2.6-7,8.2-12.9,15-15.9c3.8-1.8,8.2-2.3,12.3-2.3c3.5,0,7.3,0.6,10.6,1.8
	c3.2,1.2,6.2,2.9,8.5,5.3c2.3,2.6,4.4,5.6,5.6,8.8c1.5,3.8,2.1,7.6,2.1,11.7c0,0.9,0,2.1-0.3,2.9c0,0.6-0.3,1.2-0.6,1.8
	c-0.3,0.3-0.6,0.9-1.2,0.9c-0.6,0.3-1.2,0.3-1.8,0.3L593.4,94.1z M618.7,84.4c0-1.8-0.3-3.2-0.6-4.7c-0.6-1.5-1.2-2.9-2.1-4.1
	c-0.9-1.2-2.3-2.1-3.8-2.9c-1.8-0.6-3.5-1.2-5.3-0.9c-3.2-0.3-6.8,0.9-9.1,3.2c-2.3,2.6-3.8,5.9-4.4,9.4
	C593.4,84.4,618.7,84.4,618.7,84.4z"/>
<path class="st1" d="M641.9,69.8c3.5-3.2,7.3-5.6,11.7-7.3s9.1-2.3,14.1-2.3c3.2,0,6.5,0.6,9.7,1.8c2.6,1.2,5.3,2.9,7.3,5
	s3.5,4.7,4.7,7.3c1.2,2.9,1.5,6.2,1.5,9.4v38.2h-7.3c-1.2,0-2.3-0.3-3.5-0.6c-0.9-0.6-1.8-1.5-2.1-2.6l-1.2-4.1
	c-1.5,1.5-2.9,2.3-4.4,3.5c-1.5,0.9-2.9,1.8-4.4,2.6c-1.5,0.6-3.2,1.2-5,1.5c-2.1,0.3-3.8,0.6-5.9,0.6c-2.3,0-5-0.3-7.3-1.2
	c-2.1-0.6-4.1-1.8-5.6-3.2c-1.8-1.5-2.9-3.2-3.5-5.3c-0.9-2.3-1.5-4.7-1.2-7c0-2.3,0.6-4.7,1.8-6.8c1.5-2.6,3.5-4.7,5.9-6.2
	c3.5-2.1,7-3.5,11.2-4.4c5.6-1.5,11.4-2.1,17.3-2.1v-3.2c0.3-2.9-0.6-5.9-2.3-8.2c-1.8-1.8-4.4-2.9-7-2.6c-1.8,0-3.8,0.3-5.6,0.9
	c-1.5,0.6-2.6,1.2-3.8,1.8l-3.2,1.8c-1.2,0.6-2.3,0.9-3.5,0.9s-2.1-0.3-2.9-0.9c-0.9-0.6-1.5-1.2-1.8-2.1L641.9,69.8z M675,96.5
	c-3.2,0-6.5,0.6-10,0.9c-2.1,0.3-4.4,0.9-6.2,2.1c-1.2,0.6-2.3,1.5-3.2,2.6c-0.6,0.9-0.9,2.1-0.9,3.2c-0.3,1.8,0.6,3.8,2.1,5
	c1.8,1.2,3.5,1.5,5.6,1.5c2.3,0,4.7-0.3,7-1.5c2.1-1.2,4.1-2.6,5.9-4.4L675,96.5z"/>
<path class="st1" d="M719.9,34.3v87.5h-16.1V34.3H719.9z"/>
<path class="st1" d="M754.3,122.6c-2.3,0-5-0.3-7.3-1.2c-4.1-1.5-7.3-4.7-8.5-8.8c-0.9-2.3-1.2-4.7-1.2-7V72.7h-5.6
	c-0.9,0-1.5-0.3-2.3-0.9c-0.6-0.6-0.9-1.5-0.9-2.3v-6.2l9.7-1.8l3.2-15.6c0.3-1.8,1.8-2.9,3.5-2.6h8.5v18.5H769V73h-15.6v31.7
	c0,1.5,0.3,2.9,1.2,4.1c0.9,0.9,2.1,1.5,3.5,1.5c0.6,0,1.5,0,2.1-0.3s0.9-0.3,1.5-0.6l1.2-0.6c0.3-0.3,0.6-0.3,1.2-0.3
	c0.3,0,0.9,0,1.2,0.3s0.6,0.6,0.9,1.2l5,7.6c-2.3,1.8-4.7,3.2-7.6,4.1C760.1,122.3,757.2,122.6,754.3,122.6z"/>
<path class="st1" d="M793.9,67.1c1.2-1.2,2.3-2.1,3.5-2.9c1.2-0.9,2.6-1.5,3.8-2.1c1.5-0.6,2.9-1.2,4.4-1.5c1.8-0.3,3.5-0.6,5.3-0.6
	c2.9,0,6.2,0.6,8.8,1.8c2.3,1.2,4.7,2.9,6.5,5s3.2,4.7,3.8,7.3c0.9,2.9,1.5,6.2,1.5,9.4V122h-16.1V83.3c0.3-2.9-0.6-5.6-2.3-7.9
	c-1.8-2.1-4.4-2.9-7-2.6c-2.3,0-4.4,0.6-6.5,1.5c-2.1,1.2-4.1,2.3-5.9,4.1v43.4h-16.1V34.3h16.1L793.9,67.1z"/>
<polyline class="st2" points="155.2,97.1 179.6,110 92.4,167.8 5.5,110 29.6,97.4 "/>
<polyline class="st2" points="155.2,67.7 179.6,80.6 92.4,138.5 5.5,80.6 29.9,67.7 "/>
<polygon class="st2" points="155.2,67.7 179.6,51.3 92.4,5.2 5.5,51.3 29.9,67.7 92.4,109.1 "/>
</svg>
