<?xml version="1.0" encoding="utf-8"?>
<!-- Generator: Adobe Illustrator 24.0.3, SVG Export Plug-In . SVG Version: 6.00 Build 0)  -->
<svg version="1.1" id="Layer_1" xmlns="http://www.w3.org/2000/svg" xmlns:xlink="http://www.w3.org/1999/xlink" x="0px" y="0px"
	 viewBox="0 0 832.8 178.5" style="enable-background:new 0 0 832.8 178.5;" xml:space="preserve">
<style type="text/css">
	.st0{fill:#BF1E2D;}
	.st1{fill:#999999;}
	.st2{fill:none;stroke:#BF1E2D;stroke-width:7;stroke-miterlimit:10;}
	.st3{fill:#B5202D;}
	.st4{font-family:'Lato-Bold';}
	.st5{font-size:163.0471px;}
	.st6{fill:#969697;}
	.st7{font-family:'Optima-BoldItalic';}
	.st8{fill:none;stroke:#BF1E2D;stroke-width:2;stroke-miterlimit:10;}
	.st9{font-family:'Lato-Regular';}
	.st10{font-size:24.8518px;}
</style>
<g>
	<text transform="matrix(1 0 0 1 0 120.5566)"><tspan x="0" y="0" class="st3 st4 st5">Deep</tspan><tspan x="388.4" y="0" class="st6 st7 st5">Sight</tspan></text>
	<g>
		<path class="st0" d="M700.6,154.9c0,1.4-0.2,2.8-0.8,4.1c-0.5,1.2-1.2,2.3-2.1,3.2s-2,1.6-3.3,2.1c-1.3,0.6-2.8,0.8-4.3,0.8h-7.8
			v-20.4h7.9c1.5,0,2.9,0.2,4.3,0.8c1.3,0.5,2.3,1.2,3.3,2.1c0.9,0.9,1.6,2,2.1,3.2C700.3,152.1,700.6,153.5,700.6,154.9z
			 M696.2,154.9c0-1-0.1-2-0.4-2.9c-0.3-0.8-0.6-1.6-1.2-2.2c-0.6-0.6-1.2-1.1-1.9-1.3c-0.8-0.4-1.7-0.5-2.6-0.5h-3.6v13.8h3.6
			c0.8,0,1.8-0.1,2.6-0.5c0.7-0.3,1.4-0.8,1.9-1.3c0.6-0.6,1-1.4,1.2-2.2C696.1,156.9,696.3,155.9,696.2,154.9z"/>
		<path class="st0" d="M706.1,158.5c0,1.1,0.4,2.2,1.2,3c0.7,0.6,1.6,1,2.5,0.9c0.5,0,1-0.1,1.4-0.2c0.4-0.1,0.7-0.3,1.1-0.4
			l0.8-0.4c0.2-0.1,0.4-0.2,0.7-0.2c0.3,0,0.6,0.1,0.7,0.4l1.1,1.4c-0.4,0.5-0.8,0.8-1.3,1.2c-0.5,0.3-1,0.6-1.6,0.8
			c-0.5,0.2-1.1,0.3-1.6,0.4c-0.5,0.1-1.1,0.1-1.6,0.1c-1,0-1.9-0.1-2.8-0.5c-0.8-0.4-1.6-0.8-2.3-1.5c-0.7-0.7-1.2-1.6-1.6-2.5
			c-0.4-1.1-0.6-2.3-0.6-3.4c0-1,0.1-1.9,0.5-2.8c0.3-0.8,0.8-1.6,1.4-2.3c0.6-0.6,1.4-1.2,2.3-1.6c0.9-0.4,2-0.6,3-0.6
			c0.8,0,1.8,0.1,2.6,0.4c1.6,0.6,2.8,1.8,3.4,3.4c0.4,0.9,0.5,1.8,0.5,2.8c0,0.2,0,0.5-0.1,0.7c0,0.1-0.1,0.3-0.1,0.4
			c-0.1,0.1-0.1,0.2-0.3,0.2c-0.1,0.1-0.3,0.1-0.4,0.1L706.1,158.5z M712.2,156.2c0-0.4-0.1-0.8-0.1-1.1c-0.1-0.4-0.3-0.7-0.5-1
			c-0.2-0.3-0.6-0.5-0.9-0.7c-1.2-0.5-2.5-0.3-3.5,0.6c-0.6,0.6-0.9,1.4-1,2.3C706.2,156.2,712.2,156.2,712.2,156.2z"/>
		<path class="st0" d="M721.2,158.5c0,1.1,0.4,2.2,1.2,3c0.7,0.6,1.6,1,2.5,0.9c0.5,0,1-0.1,1.4-0.2c0.4-0.1,0.6-0.2,1-0.4l0.8-0.4
			c0.2-0.1,0.4-0.2,0.7-0.2c0.3,0,0.6,0.1,0.7,0.4l1.1,1.4c-0.4,0.5-0.8,0.8-1.3,1.2c-0.5,0.3-1,0.6-1.6,0.8
			c-0.5,0.2-1.1,0.3-1.6,0.4c-0.5,0.1-1.1,0.1-1.6,0.1c-1,0-1.9-0.1-2.8-0.5c-0.8-0.4-1.6-0.8-2.3-1.5c-0.7-0.7-1.2-1.6-1.6-2.5
			c-0.4-1.1-0.6-2.3-0.6-3.4c0-1,0.1-1.9,0.5-2.8c0.3-0.8,0.8-1.6,1.4-2.3c0.6-0.6,1.4-1.2,2.3-1.6c0.9-0.4,2-0.6,3-0.6
			c0.8,0,1.8,0.1,2.5,0.4c1.6,0.6,2.8,1.8,3.4,3.4c0.4,0.9,0.5,1.8,0.5,2.8c0,0.2,0,0.5-0.1,0.7c0,0.1-0.1,0.3-0.1,0.4
			s-0.1,0.2-0.3,0.2c-0.1,0.1-0.3,0.1-0.4,0.1L721.2,158.5z M727.3,156.2c0-0.4-0.1-0.8-0.1-1.1c-0.1-0.4-0.3-0.7-0.5-1
			c-0.2-0.3-0.6-0.5-0.9-0.7c-1.2-0.5-2.5-0.3-3.5,0.6c-0.6,0.6-0.9,1.4-1.1,2.3C721.2,156.2,727.3,156.2,727.3,156.2z"/>
		<path class="st0" d="M736.9,152.5c0.3-0.3,0.6-0.6,0.9-0.8c0.4-0.3,0.7-0.5,1.1-0.7c0.4-0.2,0.8-0.4,1.2-0.4
			c0.5-0.1,0.9-0.1,1.4-0.1c0.8,0,1.5,0.1,2.2,0.5c0.6,0.4,1.3,0.8,1.7,1.5c0.5,0.7,0.8,1.5,1.1,2.3c0.3,1.1,0.4,2.1,0.4,3.2
			c0,1.1-0.1,2-0.4,3c-0.3,0.8-0.7,1.7-1.3,2.4c-0.6,0.6-1.2,1.2-2,1.6c-0.8,0.4-1.7,0.6-2.5,0.6c-0.7,0-1.3-0.1-2-0.4
			c-0.6-0.2-1.1-0.6-1.5-1v5.8h-3.9v-19.3h2.4c0.4,0,0.8,0.3,1,0.7L736.9,152.5z M737.1,161.3c0.4,0.4,0.7,0.7,1.2,0.9
			c0.4,0.1,0.9,0.3,1.4,0.3c0.4,0,0.8-0.1,1.3-0.3c0.4-0.2,0.8-0.5,1-0.8c0.3-0.4,0.5-0.9,0.6-1.5c0.1-0.7,0.2-1.4,0.2-2.1
			c0-0.7-0.1-1.4-0.2-2c-0.1-0.5-0.3-0.9-0.6-1.3c-0.2-0.4-0.5-0.6-0.8-0.8c-0.4-0.1-0.8-0.2-1.1-0.2c-0.6,0-1.2,0.1-1.7,0.4
			c-0.5,0.3-1,0.7-1.3,1.2L737.1,161.3C737,161.3,737.1,161.3,737.1,161.3z"/>
		<path class="st1" d="M767.9,144.7v20.4h-4.3v-8.8h-9v8.8h-4.2v-20.4h4.2v8.7h9v-8.7H767.9z"/>
		<path class="st1" d="M774.3,158.5c0,1.1,0.4,2.2,1.1,3c0.7,0.6,1.6,1,2.5,0.9c0.5,0,1-0.1,1.4-0.2c0.4-0.1,0.7-0.3,1.1-0.4
			l0.8-0.4c0.2-0.1,0.4-0.2,0.7-0.2c0.3,0,0.6,0.1,0.7,0.4l1.1,1.4c-0.4,0.5-0.8,0.8-1.3,1.2c-0.5,0.3-1,0.6-1.6,0.8
			c-0.5,0.2-1.1,0.3-1.6,0.4c-0.5,0.1-1.1,0.1-1.6,0.1c-1,0-1.9-0.1-2.8-0.5c-0.8-0.4-1.6-0.8-2.3-1.5c-0.7-0.7-1.2-1.6-1.6-2.5
			c-0.4-1.1-0.6-2.3-0.6-3.4c0-1,0.1-1.9,0.5-2.8c0.6-1.7,2-3.1,3.6-3.8c0.9-0.4,2-0.6,3-0.6c0.8,0,1.8,0.1,2.5,0.4
			c0.8,0.3,1.5,0.7,2,1.3c0.6,0.6,1.1,1.3,1.3,2.1c0.4,0.9,0.5,1.8,0.5,2.8c0,0.2,0,0.5-0.1,0.7c0,0.1-0.1,0.3-0.1,0.4
			c-0.1,0.1-0.1,0.2-0.3,0.2c-0.1,0.1-0.3,0.1-0.4,0.1L774.3,158.5z M780.4,156.2c0-0.4-0.1-0.8-0.1-1.1c-0.1-0.4-0.3-0.7-0.5-1
			c-0.2-0.3-0.6-0.5-0.9-0.7c-0.4-0.1-0.8-0.3-1.3-0.2c-0.8-0.1-1.6,0.2-2.2,0.8c-0.6,0.6-0.9,1.4-1.1,2.3
			C774.3,156.2,780.4,156.2,780.4,156.2z"/>
		<path class="st1" d="M786,152.7c0.8-0.8,1.8-1.3,2.8-1.8c1.1-0.4,2.2-0.6,3.4-0.6c0.8,0,1.6,0.1,2.3,0.4c0.6,0.3,1.3,0.7,1.8,1.2
			c0.5,0.5,0.8,1.1,1.1,1.8c0.3,0.7,0.4,1.5,0.4,2.3v9.2H796c-0.3,0-0.6-0.1-0.8-0.1c-0.2-0.1-0.4-0.4-0.5-0.6l-0.3-1
			c-0.4,0.4-0.7,0.6-1.1,0.8c-0.4,0.2-0.7,0.4-1.1,0.6c-0.4,0.1-0.8,0.3-1.2,0.4c-0.5,0.1-0.9,0.1-1.4,0.1c-0.6,0-1.2-0.1-1.8-0.3
			c-0.5-0.1-1-0.4-1.3-0.8c-0.4-0.4-0.7-0.8-0.8-1.3c-0.2-0.6-0.4-1.1-0.3-1.7c0-0.6,0.1-1.1,0.4-1.6c0.4-0.6,0.8-1.1,1.4-1.5
			c0.8-0.5,1.7-0.8,2.7-1.1c1.3-0.4,2.7-0.5,4.2-0.5v-0.8c0.1-0.7-0.1-1.4-0.6-2c-0.4-0.4-1.1-0.7-1.7-0.6c-0.4,0-0.9,0.1-1.3,0.2
			c-0.4,0.1-0.6,0.3-0.9,0.4l-0.8,0.4c-0.3,0.1-0.6,0.2-0.8,0.2s-0.5-0.1-0.7-0.2c-0.2-0.1-0.4-0.3-0.4-0.5L786,152.7z M793.9,159.1
			c-0.8,0-1.6,0.1-2.4,0.2c-0.5,0.1-1.1,0.2-1.5,0.5c-0.3,0.1-0.6,0.4-0.8,0.6c-0.1,0.2-0.2,0.5-0.2,0.8c-0.1,0.4,0.1,0.9,0.5,1.2
			c0.4,0.3,0.8,0.4,1.3,0.4c0.6,0,1.1-0.1,1.7-0.4c0.5-0.3,1-0.6,1.4-1.1L793.9,159.1z"/>
		<path class="st1" d="M804.7,144.1v21h-3.9v-21H804.7z"/>
		<path class="st1" d="M813,165.3c-0.6,0-1.2-0.1-1.8-0.3c-1-0.4-1.8-1.1-2-2.1c-0.2-0.6-0.3-1.1-0.3-1.7v-7.9h-1.3
			c-0.2,0-0.4-0.1-0.6-0.2c-0.1-0.1-0.2-0.4-0.2-0.6v-1.5l2.3-0.4l0.8-3.7c0.1-0.4,0.4-0.7,0.8-0.6h2v4.4h3.7v2.7h-3.7v7.6
			c0,0.4,0.1,0.7,0.3,1c0.2,0.2,0.5,0.4,0.8,0.4c0.1,0,0.4,0,0.5-0.1c0.1-0.1,0.2-0.1,0.4-0.1l0.3-0.1c0.1-0.1,0.1-0.1,0.3-0.1
			c0.1,0,0.2,0,0.3,0.1c0.1,0.1,0.1,0.1,0.2,0.3l1.2,1.8c-0.6,0.4-1.1,0.8-1.8,1C814.3,165.3,813.7,165.3,813,165.3z"/>
		<path class="st1" d="M822.5,152c0.3-0.3,0.6-0.5,0.8-0.7c0.3-0.2,0.6-0.4,0.9-0.5c0.4-0.1,0.7-0.3,1.1-0.4
			c0.4-0.1,0.8-0.1,1.3-0.1c0.7,0,1.5,0.1,2.1,0.4c0.6,0.3,1.1,0.7,1.6,1.2c0.4,0.5,0.8,1.1,0.9,1.8c0.2,0.7,0.4,1.5,0.4,2.3v9.2
			h-3.9v-9.3c0.1-0.7-0.1-1.3-0.6-1.9c-0.4-0.5-1.1-0.7-1.7-0.6c-0.6,0-1.1,0.1-1.6,0.4c-0.5,0.3-1,0.6-1.4,1v10.4h-3.9v-21h3.9
			L822.5,152z"/>
		<polyline class="st8" points="669,159.2 674.9,162.3 654,176.2 633.1,162.3 638.9,159.3 		"/>
		<polyline class="st8" points="669,152.2 674.9,155.2 654,169.2 633.1,155.2 638.9,152.2 		"/>
		<polygon class="st8" points="669,152.2 674.9,148.2 654,137.1 633.1,148.2 638.9,152.2 654,162.1 		"/>
	</g>
	<text transform="matrix(1.0934 0 0 1 596.3408 165.1221)" class="st6 st9 st10">by</text>
</g>
</svg>
