<svg xmlns="http://www.w3.org/2000/svg" width="20" height="20" viewBox="0 0 20 20">
  <path fill="#DA4F70" fill-rule="evenodd" d="M15.6685714,5.03396825 C14.9788889,5.03396825 14.3926984,5.27539683 13.9098413,5.75809524 C13.4271429,6.24095238 13.1857143,6.82714286 13.1857143,7.51698413 C13.1857143,8.05142857 13.3387302,8.53 13.6447619,8.95238095 C13.9509524,9.37492063 14.3495238,9.67650794 14.8411111,9.85761905 L14.8411111,14.965873 C14.8411111,15.8798413 14.4357143,16.6601587 13.6255556,17.3066667 C12.8150794,17.9531746 11.8409524,18.2765079 10.7026984,18.2765079 C9.5647619,18.2765079 8.59047619,17.9531746 7.78,17.3066667 C6.96968254,16.6601587 6.56444444,15.8798413 6.56444444,14.965873 L6.56444444,13.2588889 C7.9784127,13.0865079 9.15952381,12.5346032 10.1079365,11.6033333 C11.0563492,10.672381 11.5306349,9.58603175 11.5306349,8.34444444 L11.5306349,1.72333333 C11.5306349,1.49920635 11.4485714,1.30507937 11.2847619,1.14126984 C11.1211111,0.977619048 10.9268254,0.895555556 10.7026984,0.895555556 C10.6511111,0.895555556 10.5820635,0.904285714 10.495873,0.921428571 C10.3492063,0.662698413 10.1466667,0.456031746 9.88793651,0.300634921 C9.62952381,0.145396825 9.34920635,0.0679365079 9.04746032,0.0679365079 C8.59063492,0.0679365079 8.20047619,0.22968254 7.87714286,0.552857143 C7.55380952,0.876190476 7.39222222,1.26634921 7.39222222,1.72333333 C7.39222222,2.18015873 7.55380952,2.57031746 7.87714286,2.89365079 C8.20047619,3.21698413 8.59063492,3.37857143 9.04746032,3.37857143 C9.33190476,3.37857143 9.60777778,3.30111111 9.87507937,3.14587302 L9.87507937,5.9858631 L9.87507937,8.34460317 C9.87507937,9.25857143 9.46984127,10.0387302 8.65952381,10.6855556 C7.84904762,11.3319048 6.8747619,11.6550794 5.7368254,11.6550794 C4.59888889,11.6550794 3.62460317,11.3319048 2.81412698,10.6855556 C2.00380952,10.0388889 1.59857143,9.25873016 1.59857143,8.34460317 L1.59857143,3.14587302 C1.86571429,3.30111111 2.14174603,3.37857143 2.42619048,3.37857143 C2.88301587,3.37857143 3.2731746,3.21698413 3.59650794,2.89365079 C3.91984127,2.57031746 4.08142857,2.18015873 4.08142857,1.72333333 C4.08142857,1.26634921 3.91984127,0.876190476 3.59650794,0.552857143 C3.2731746,0.22968254 2.88301587,0.0679365079 2.42619048,0.0679365079 C2.12444444,0.0679365079 1.84412698,0.145396825 1.58555556,0.300634921 C1.32698413,0.455873016 1.12428571,0.662698413 0.977777778,0.921428571 C0.891428571,0.904285714 0.822539683,0.895555556 0.770793651,0.895555556 C0.546507937,0.895555556 0.352539683,0.977619048 0.188730159,1.14126984 C0.0249206349,1.30507937 -0.056984127,1.49920635 -0.056984127,1.72333333 L-0.056984127,8.34460317 C-0.056984127,9.58603175 0.417142857,10.6722222 1.36555556,11.6034921 C2.31396825,12.5346032 3.49507937,13.0866667 4.90904762,13.2590476 L4.90904762,14.9660317 C4.90904762,16.3369841 5.47587302,17.5073016 6.60968254,18.4769841 C7.74349206,19.4469841 9.10777778,19.9319048 10.7026984,19.9319048 C12.2979365,19.9319048 13.6620635,19.4469841 14.795873,18.4769841 C15.9298413,17.5073016 16.4963492,16.3369841 16.4963492,14.9660317 L16.4963492,9.85761905 C16.9879365,9.67650794 17.3865079,9.37492063 17.6926984,8.95238095 C17.9988889,8.53 18.1520635,8.05142857 18.1520635,7.51698413 C18.1519048,6.82730159 17.9104762,6.24095238 17.4274603,5.75809524 C16.9446032,5.27539683 16.358254,5.03396825 15.6685714,5.03396825 Z M16.2509524,8.09888889 C16.0869841,8.26269841 15.8930159,8.34460317 15.6688889,8.34460317 C15.4447619,8.34460317 15.2507937,8.26269841 15.0869841,8.09888889 C14.9231746,7.93507937 14.8412698,7.74111111 14.8412698,7.51698413 C14.8412698,7.29285714 14.9231746,7.09873016 15.0869841,6.93492063 C15.2507937,6.77126984 15.4447619,6.68920635 15.6688889,6.68920635 C15.8930159,6.68920635 16.0869841,6.77126984 16.2509524,6.93492063 C16.4146032,7.09873016 16.4965079,7.29285714 16.4965079,7.51698413 C16.4965079,7.74126984 16.4146032,7.93507937 16.2509524,8.09888889 L16.2509524,8.09888889 Z" transform="translate(1)"/>
</svg>
