<svg xmlns="http://www.w3.org/2000/svg" width="13" height="18" viewBox="0 0 13 18">
  <g fill="none" fill-rule="evenodd" transform="translate(-.125)">
    <path fill="#DA4F70" d="M6.625 4.6005C7.2565 4.6005 7.794375 4.37825 8.23925 3.9335 8.684125 3.48875 8.90625 2.950625 8.90625 2.31925 8.90625 1.68775 8.684125 1.149875 8.23925.705 7.794375.260375 7.256375.038 6.625.038 5.9935.038 5.455375.26025 5.01075.705 4.566125 1.14975 4.34375 1.68775 4.34375 2.31925 4.34375 2.95075 4.566 3.488875 5.01075 3.9335 5.4555 4.378125 5.9935 4.6005 6.625 4.6005L6.625 4.6005zM12.979875 9.92675L10.372875 6.016C9.87725 5.2895 9.279875 4.92625 8.580375 4.92625L4.669625 4.92625C3.970375 4.92625 3.372875 5.2895 2.87725 6.016L.270125 9.92675C.1615 10.089625.107125 10.269625.107125 10.4665.107125 10.738.202125 10.969.39225 11.158875.582375 11.349.81325 11.444 1.08475 11.444 1.431 11.444 1.702625 11.298 1.8995 11.006125L4.21125 7.533375 4.669625 7.533375 4.669625 8.877625 2.154125 13.06325C2.093 13.165 2.0625 13.277 2.0625 13.39925 2.0625 13.575875 2.127 13.7285 2.256 13.857625 2.385 13.9865 2.53775 14.051 2.71425 14.051L4.6695 14.051 4.6695 16.821125C4.6695 17.1335 4.781375 17.40175 5.0055 17.62575 5.229625 17.84975 5.49775 17.96175 5.810125 17.96175L7.4395 17.96175C7.752 17.96175 8.02025 17.84975 8.24425 17.62575 8.46825 17.401625 8.58025 17.1335 8.58025 16.821125L8.58025 14.051 10.53575 14.051C10.71225 14.051 10.865 13.9865 10.994 13.857625 11.123 13.7285 11.1875 13.575875 11.1875 13.39925 11.1875 13.277 11.157 13.165 11.096 13.06325L8.580375 8.877625 8.580375 7.533375 9.038875 7.533375 11.350625 11.00625C11.5475 11.298125 11.819 11.444125 12.1655 11.444125 12.437 11.444125 12.66775 11.349125 12.85775 11.159 13.047875 10.969 13.142875 10.738125 13.142875 10.466625 13.142875 10.269625 13.088625 10.08975 12.979875 9.92675L12.979875 9.92675z"/>
  </g>
</svg>
