<svg id="Layer_1" data-name="Layer 1" xmlns="http://www.w3.org/2000/svg" viewBox="0 0 184.17 37.31"><defs><style>.cls-1{fill:#fff;}.cls-2{fill:#686968;}</style></defs><title>report_bw_logo</title><path class="cls-1" d="M40.65,17.37,37,19.83c-1.66,1.1-1.66,1.1.09,2l3.57,1.89c-.14.34-.4.43-.61.57q-9.59,6.36-19.17,12.75a1,1,0,0,1-1.37,0Q9.93,30.68.36,24.34c-.79-.52-.79-.53.06-1,1.33-.71,2.66-1.42,4-2.11.48-.24.51-.4,0-.71C3,19.61,1.6,18.64.16,17.71c-.5-.32-.48-.49,0-.76,1.32-.67,2.62-1.37,3.93-2.07.88-.46.88-.47.09-1-1.35-.89-2.69-1.79-4-2.67-.44-.29-.56-.46,0-.76Q10,5.31,19.71.13a.89.89,0,0,1,.94,0Q30.34,5.28,40,10.39c.56.3.63.49.05.86-1.41.9-2.77,1.85-4.17,2.75-.48.31-.51.49,0,.76,1.32.67,2.62,1.38,3.93,2.08A1.82,1.82,0,0,1,40.65,17.37Z" transform="translate(0.22)"/><path class="cls-1" d="M46.18,16.85c0-2.86,0-5.72,0-8.58,0-.73.22-.94.93-.91,2.73.1,5.47-.19,8.19.16a9,9,0,0,1,7.81,8.6c.15,3.25-.71,6.08-3.3,8.21A9.2,9.2,0,0,1,54,26.4c-2.37.06-4.73,0-7.1,0-.59,0-.76-.2-.75-.77C46.19,22.73,46.18,19.79,46.18,16.85Z" transform="translate(0.22)"/><path class="cls-2" d="M109.1,16.85c0-2.86,0-5.72,0-8.58,0-.73.24-1,.94-.91a18.93,18.93,0,0,0,2.26,0c.59,0,.77.18.76.76,0,2.18,0,4.37,0,6.55,0,.57.11.85.77.83q3.39,0,6.79,0c.58,0,.77-.18.76-.76,0-2.16,0-4.32,0-6.48,0-.73.23-1,.93-.9s1.67,0,2.5,0c.4,0,.57.16.56.55s0,.73,0,1.09V25.4c0,1,0,1-1,1-.66,0-1.31-.05-2,0s-1-.16-1-1c.06-2.15,0-4.31,0-6.47,0-.65-.2-.85-.84-.84q-3.36,0-6.71,0c-.58,0-.78.17-.77.75,0,2.24,0,4.48,0,6.72,0,.65-.2.87-.84.83a17,17,0,0,0-2.26,0c-.65,0-.86-.19-.85-.84C109.12,22.68,109.1,19.77,109.1,16.85Z" transform="translate(0.22)"/><path class="cls-1" d="M96.75,14.52a5.19,5.19,0,0,1,4-1.85,4.27,4.27,0,0,1,4.16,2.51,9.17,9.17,0,0,1,0,8.35,5.26,5.26,0,0,1-7.67,2.21,1.83,1.83,0,0,0-.26-.11,2.11,2.11,0,0,0-.1,1.05c0,1.15,0,2.29,0,3.44,0,.49-.16.7-.68.68q-1.17,0-2.34,0c-.48,0-.64-.18-.63-.64,0-.93,0-1.87,0-2.81,0-4.52,0-9,0-13.58,0-.75.22-1.06,1-.93h.08C96.3,12.87,96.06,12.6,96.75,14.52Z" transform="translate(0.22)"/><path class="cls-2" d="M175.61,14.08a6.16,6.16,0,0,1,3.17-1.38,4.37,4.37,0,0,1,5.1,4.5c.12,2.88,0,5.77,0,8.66,0,.46-.21.58-.62.57-.73,0-1.46,0-2.18,0s-.81-.18-.8-.8c0-2.34,0-4.68,0-7,0-.29,0-.58,0-.86,0-1.33-.49-2.07-1.43-2.34a3.32,3.32,0,0,0-3.14,1.15,1.41,1.41,0,0,0-.13.83c0,2.7,0,5.41,0,8.12,0,.71-.2,1-.93.92a19.81,19.81,0,0,0-2.18,0c-.4,0-.57-.17-.56-.56,0-.15,0-.31,0-.47V7.92c0-1,0-1,1-1,.62,0,1.25,0,1.87,0s.77.19.76.76c0,1.8,0,3.59,0,5.39Z" transform="translate(0.22)"/><path class="cls-2" d="M135.39,20.18c-1.2,0-2.4,0-3.59,0-.54,0-.66.17-.57.7a3.37,3.37,0,0,0,4.66,2.84,10,10,0,0,0,1.34-.61c1-.51,1.3-.45,2,.41s.82,1-.23,1.71a7.81,7.81,0,0,1-8.15.51,6.22,6.22,0,0,1-3.23-5.06c-.49-3.33,1-6.25,3.72-7.45s7.35-.72,8.46,3.68a7.24,7.24,0,0,1,.22,2.32c0,.65-.33,1-1,1-1.2,0-2.4,0-3.59,0Z" transform="translate(0.22)"/><path class="cls-1" d="M72.49,20.18c-1.2,0-2.4,0-3.59,0-.59,0-.7.19-.59.74A3.37,3.37,0,0,0,73,23.7a10.12,10.12,0,0,0,1.34-.62c.94-.48,1.26-.42,1.93.4.81,1,.84,1.07-.23,1.76a7.83,7.83,0,0,1-8.09.51,6.13,6.13,0,0,1-3.26-5.12c-.29-2.47.16-4.77,2.17-6.44a6.48,6.48,0,0,1,7-.93,5.8,5.8,0,0,1,3.16,6.16.82.82,0,0,1-.91.76Z" transform="translate(0.22)"/><path class="cls-1" d="M86.36,20.18c-1.2,0-2.39,0-3.59,0-.52,0-.67.14-.58.69a3.38,3.38,0,0,0,4.72,2.83,9.06,9.06,0,0,0,1.34-.62c.92-.47,1.25-.41,1.88.37.87,1.07.9,1.12-.28,1.86a7.86,7.86,0,0,1-7.89.51,6.14,6.14,0,0,1-3.38-5.28c-.28-2.6.27-5,2.5-6.59a6.53,6.53,0,0,1,6.67-.71A5.81,5.81,0,0,1,91,19.36a.84.84,0,0,1-.94.82c-1.22,0-2.45,0-3.67,0Z" transform="translate(0.22)"/><path class="cls-2" d="M152.7,21.6c0,1.3,0,2.6,0,3.9,0,.78-.24,1-1,.93a2.66,2.66,0,0,0-.63,0,1.14,1.14,0,0,1-1.32-.94c-.16-.68-.41-.62-.87-.23a5.54,5.54,0,0,1-4.9,1.19,3.19,3.19,0,0,1-2.7-2.58,3.35,3.35,0,0,1,1.44-3.75,9.92,9.92,0,0,1,5.11-1.48c1.35-.1,1.51-.3,1.21-1.65a1.8,1.8,0,0,0-1.77-1.48,4.68,4.68,0,0,0-2.6.69c-1.33.7-2.23.31-2.7-1.11a.48.48,0,0,1,.21-.6,7.64,7.64,0,0,1,7.48-1.4c2.05.72,2.89,2.45,3,4.53.06,1.33,0,2.65,0,4Z" transform="translate(0.22)"/><path class="cls-2" d="M163,19.53c0-1.17,0-2.34,0-3.51,0-.49-.14-.68-.66-.69-1.19,0-1.63-.68-1.3-1.82a.51.51,0,0,1,.59-.39c1.34,0,1.85-.72,1.92-2a11.08,11.08,0,0,1,.33-1.6.87.87,0,0,1,1-.79c2.11,0,1.69-.24,1.73,1.64,0,.62,0,1.25,0,1.87,0,.4.16.56.56.56.78,0,1.56,0,2.34,0,.4,0,.58.16.56.56,0,0,0,0,0,.08,0,2.31.25,1.83-1.74,1.86-1.72,0-1.72,0-1.72,1.74s0,3.49,0,5.23c0,1.29.6,1.71,1.79,1.25.47-.19.8-.14,1,.32.1.18.22.35.33.52.71,1.15.7,1.2-.59,1.73a6.1,6.1,0,0,1-3,.43A3.39,3.39,0,0,1,163,23c-.05-1.17,0-2.34,0-3.51Z" transform="translate(0.22)"/><path class="cls-2" d="M159.23,16.66c0,3,0,5.93,0,8.89,0,.68-.18.95-.88.89a9.74,9.74,0,0,0-1.87,0c-.69.06-.89-.2-.88-.88,0-4.35,0-8.69,0-13,0-1.64,0-3.27,0-4.91,0-.53.17-.75.72-.73a16.35,16.35,0,0,0,2.1,0c.63,0,.81.19.8.8C159.22,10.68,159.23,13.67,159.23,16.66Z" transform="translate(0.22)"/><path d="M38,10.92c-.09.28-.36.37-.57.5q-4.8,3.21-9.62,6.4c-2.34,1.55-4.69,3.1-7,4.67a1,1,0,0,1-1.25,0q-8.34-5.57-16.7-11.1c-.72-.48-.71-.49.06-.9q8.28-4.38,16.55-8.77a1.34,1.34,0,0,1,1.43,0q8.24,4.38,16.48,8.73C37.6,10.6,37.86,10.67,38,10.92Z" transform="translate(0.22)"/><path d="M2.2,17.39C3.51,16.7,4.76,16,6,15.38c.37-.19.64.13.91.31,4.16,2.76,8.33,5.51,12.47,8.3a1.14,1.14,0,0,0,1.51,0c4.13-2.77,8.28-5.5,12.4-8.27a1.22,1.22,0,0,1,1.49-.09c.89.54,1.82,1,2.75,1.46.53.27.52.44,0,.76-2.89,1.9-5.77,3.82-8.65,5.73L20.76,29c-.34.22-.6.41-1,.11C14,25.29,8.24,21.49,2.5,17.67A2.11,2.11,0,0,1,2.2,17.39Z" transform="translate(0.22)"/><path d="M38,24c-.17.13-.35.27-.54.4L23.36,33.79c-.88.59-1.78,1.16-2.65,1.77a.79.79,0,0,1-1.05,0l-17-11.27c-.45-.3-.45-.46,0-.71,1-.48,1.95-1,2.9-1.53a1,1,0,0,1,1.26.07c4.15,2.78,8.33,5.52,12.46,8.32a1.25,1.25,0,0,0,1.64,0c4.1-2.76,8.23-5.47,12.33-8.23a1.24,1.24,0,0,1,1.54-.06c.89.53,1.84,1,2.75,1.47C37.77,23.71,38,23.76,38,24Z" transform="translate(0.22)"/><path d="M50.11,16.9c0-1.9,0-3.8,0-5.69,0-.54.16-.74.71-.72,1,0,1.93,0,2.89,0a5.12,5.12,0,0,1,5,3.81,8.72,8.72,0,0,1,0,5.3,5.06,5.06,0,0,1-4.82,3.66c-1,0-2,0-3,0-.54,0-.78-.17-.7-.71V16.9Z" transform="translate(0.22)"/><path d="M96.91,19.91V17.72a2.31,2.31,0,0,1,1.84-2.18c1.28-.34,2.39,0,2.83,1a7,7,0,0,1-.12,6.1,2.75,2.75,0,0,1-4.25.52,1.09,1.09,0,0,1-.3-.85C96.92,21.52,96.91,20.71,96.91,19.91Z" transform="translate(0.22)"/><path d="M134,18h-2.19c-.35,0-.53-.06-.46-.49A2.74,2.74,0,0,1,134,15.34a2.47,2.47,0,0,1,2.69,1.89c.12.52,0,.79-.57.77S134.67,18,134,18Z" transform="translate(0.22)"/><path d="M71.06,18H68.8c-.29,0-.49,0-.44-.43A2.74,2.74,0,0,1,71,15.34a2.49,2.49,0,0,1,2.78,1.95c.11.49,0,.73-.56.7C72.51,18,71.78,18,71.06,18Z" transform="translate(0.22)"/><path d="M85,18H82.7c-.31,0-.49,0-.44-.43a2.72,2.72,0,0,1,2.57-2.21,2.51,2.51,0,0,1,2.84,1.87c.14.57,0,.81-.62.78S85.65,18,85,18Z" transform="translate(0.22)"/><path d="M149.16,22c.2.7-.28,1.14-.89,1.51a3.5,3.5,0,0,1-2.46.48,1.16,1.16,0,0,1-1.08-1,1.34,1.34,0,0,1,.58-1.49,6.37,6.37,0,0,1,3.45-.74C149.14,20.83,149.16,20.94,149.16,22Z" transform="translate(0.22)"/></svg>